<svg version="1.2" baseProfile="tiny-ps" xmlns="http://www.w3.org/2000/svg" viewBox="0 0 16 20" width="16" height="20">
	<title>#1 Header</title>
	<style>
		tspan { white-space:pre }
		.shp0 { fill: #ffffff } 
	</style>
	<g id="#1 Header">
		<g id="Header Menu">
			<g id="Menu 2">
				<g id="Button">
					<path id="Apple Icon" class="shp0" d="M15.99 14.6C15.97 14.67 15.58 16.04 14.61 17.43C13.8 18.65 12.95 19.85 11.6 19.87C10.29 19.9 9.84 19.09 8.34 19.09C6.82 19.09 6.35 19.85 5.09 19.9C3.81 19.95 2.83 18.6 1.98 17.38C0.3 14.9 -1 10.4 0.75 7.33C1.6 5.83 3.15 4.86 4.81 4.84C6.09 4.81 7.29 5.71 8.08 5.71C8.86 5.71 10.33 4.63 11.86 4.79C12.49 4.81 14.31 5.05 15.48 6.77C15.38 6.83 13.32 8.05 13.34 10.57C13.36 13.59 15.95 14.59 15.99 14.6ZM10.86 3.16C11.54 2.31 12 1.15 11.87 -0.03C10.89 0.01 9.67 0.65 8.96 1.49C8.34 2.22 7.78 3.43 7.92 4.56C9.03 4.65 10.15 4 10.86 3.16Z" />
				</g>
			</g>
		</g>
	</g>
</svg>